<mxfile host="Electron" agent="Mozilla/5.0 (Windows NT 10.0; Win64; x64) AppleWebKit/537.36 (KHTML, like Gecko) draw.io/24.7.5 Chrome/126.0.6478.183 Electron/31.3.0 Safari/537.36" version="24.7.5" pages="2">
  <diagram name="202408017" id="_qTMZ9agV6DyS4d2ZqxH">
    <mxGraphModel dx="1917" dy="1004" grid="1" gridSize="10" guides="1" tooltips="1" connect="1" arrows="1" fold="1" page="1" pageScale="1" pageWidth="827" pageHeight="1169" math="0" shadow="0">
      <root>
        <mxCell id="0" />
        <mxCell id="1" parent="0" />
        <mxCell id="H0H0fJoh627wvlZ6eN0J-27" value="" style="rounded=0;whiteSpace=wrap;html=1;fillColor=none;" vertex="1" parent="1">
          <mxGeometry x="38" width="1402" height="1050" as="geometry" />
        </mxCell>
        <mxCell id="H0H0fJoh627wvlZ6eN0J-7" style="edgeStyle=orthogonalEdgeStyle;rounded=1;orthogonalLoop=1;jettySize=auto;html=1;curved=0;" edge="1" parent="1" source="H0H0fJoh627wvlZ6eN0J-1" target="H0H0fJoh627wvlZ6eN0J-3">
          <mxGeometry relative="1" as="geometry" />
        </mxCell>
        <mxCell id="H0H0fJoh627wvlZ6eN0J-1" value="__init__()" style="rounded=0;whiteSpace=wrap;html=1;" vertex="1" parent="1">
          <mxGeometry x="160" y="40" width="120" height="60" as="geometry" />
        </mxCell>
        <mxCell id="H0H0fJoh627wvlZ6eN0J-4" style="rounded=0;orthogonalLoop=1;jettySize=auto;html=1;" edge="1" parent="1" source="H0H0fJoh627wvlZ6eN0J-2" target="H0H0fJoh627wvlZ6eN0J-3">
          <mxGeometry relative="1" as="geometry" />
        </mxCell>
        <mxCell id="H0H0fJoh627wvlZ6eN0J-2" value="&amp;lt;DS&amp;gt;&lt;div&gt;param_type_def_file&lt;/div&gt;" style="rounded=0;whiteSpace=wrap;html=1;" vertex="1" parent="1">
          <mxGeometry x="80" y="160" width="120" height="60" as="geometry" />
        </mxCell>
        <mxCell id="H0H0fJoh627wvlZ6eN0J-6" style="rounded=1;orthogonalLoop=1;jettySize=auto;html=1;" edge="1" parent="1" source="H0H0fJoh627wvlZ6eN0J-3" target="H0H0fJoh627wvlZ6eN0J-5">
          <mxGeometry relative="1" as="geometry" />
        </mxCell>
        <mxCell id="H0H0fJoh627wvlZ6eN0J-3" value="_set_dict_param_type()" style="rounded=0;whiteSpace=wrap;html=1;" vertex="1" parent="1">
          <mxGeometry x="160" y="240" width="120" height="60" as="geometry" />
        </mxCell>
        <mxCell id="H0H0fJoh627wvlZ6eN0J-5" value="&amp;lt;DS&amp;gt;&lt;div&gt;dict_param_type&lt;/div&gt;" style="rounded=0;whiteSpace=wrap;html=1;" vertex="1" parent="1">
          <mxGeometry x="280" y="320" width="120" height="60" as="geometry" />
        </mxCell>
        <mxCell id="H0H0fJoh627wvlZ6eN0J-8" style="rounded=1;orthogonalLoop=1;jettySize=auto;html=1;" edge="1" parent="1" source="H0H0fJoh627wvlZ6eN0J-9" target="H0H0fJoh627wvlZ6eN0J-10">
          <mxGeometry relative="1" as="geometry" />
        </mxCell>
        <mxCell id="H0H0fJoh627wvlZ6eN0J-9" value="_set_func_dict()" style="rounded=0;whiteSpace=wrap;html=1;" vertex="1" parent="1">
          <mxGeometry x="360" y="240" width="120" height="60" as="geometry" />
        </mxCell>
        <mxCell id="H0H0fJoh627wvlZ6eN0J-10" value="&amp;lt;DS&amp;gt;&lt;div&gt;dict_functions&lt;/div&gt;" style="rounded=0;whiteSpace=wrap;html=1;" vertex="1" parent="1">
          <mxGeometry x="480" y="320" width="120" height="60" as="geometry" />
        </mxCell>
        <mxCell id="H0H0fJoh627wvlZ6eN0J-11" style="edgeStyle=orthogonalEdgeStyle;rounded=1;orthogonalLoop=1;jettySize=auto;html=1;curved=0;" edge="1" parent="1" source="H0H0fJoh627wvlZ6eN0J-1" target="H0H0fJoh627wvlZ6eN0J-9">
          <mxGeometry relative="1" as="geometry">
            <mxPoint x="230" y="110" as="sourcePoint" />
            <mxPoint x="230" y="250" as="targetPoint" />
            <Array as="points">
              <mxPoint x="220" y="160" />
              <mxPoint x="420" y="160" />
            </Array>
          </mxGeometry>
        </mxCell>
        <mxCell id="H0H0fJoh627wvlZ6eN0J-12" style="rounded=1;orthogonalLoop=1;jettySize=auto;html=1;" edge="1" source="H0H0fJoh627wvlZ6eN0J-13" target="H0H0fJoh627wvlZ6eN0J-14" parent="1">
          <mxGeometry relative="1" as="geometry" />
        </mxCell>
        <mxCell id="H0H0fJoh627wvlZ6eN0J-13" value="_set_value_str_to_value()" style="rounded=0;whiteSpace=wrap;html=1;" vertex="1" parent="1">
          <mxGeometry x="600" y="440" width="120" height="60" as="geometry" />
        </mxCell>
        <mxCell id="H0H0fJoh627wvlZ6eN0J-14" value="&lt;div&gt;(decode_value_str_to_value())[]&lt;/div&gt;" style="rounded=0;whiteSpace=wrap;html=1;" vertex="1" parent="1">
          <mxGeometry x="720" y="520" width="120" height="60" as="geometry" />
        </mxCell>
        <mxCell id="H0H0fJoh627wvlZ6eN0J-15" value="&lt;div&gt;(decode_value_str_to_value())[]&lt;/div&gt;" style="rounded=0;whiteSpace=wrap;html=1;" vertex="1" parent="1">
          <mxGeometry x="730" y="530" width="120" height="60" as="geometry" />
        </mxCell>
        <mxCell id="H0H0fJoh627wvlZ6eN0J-16" value="&lt;div&gt;(decode_value_str_to_value())[]&lt;/div&gt;" style="rounded=0;whiteSpace=wrap;html=1;" vertex="1" parent="1">
          <mxGeometry x="740" y="540" width="120" height="60" as="geometry" />
        </mxCell>
        <mxCell id="H0H0fJoh627wvlZ6eN0J-17" style="edgeStyle=orthogonalEdgeStyle;rounded=1;orthogonalLoop=1;jettySize=auto;html=1;curved=0;" edge="1" parent="1" source="H0H0fJoh627wvlZ6eN0J-1" target="H0H0fJoh627wvlZ6eN0J-13">
          <mxGeometry relative="1" as="geometry">
            <mxPoint x="230" y="40" as="sourcePoint" />
            <mxPoint x="560" y="200" as="targetPoint" />
            <Array as="points">
              <mxPoint x="220" y="160" />
              <mxPoint x="660" y="160" />
            </Array>
          </mxGeometry>
        </mxCell>
        <mxCell id="H0H0fJoh627wvlZ6eN0J-18" style="rounded=1;orthogonalLoop=1;jettySize=auto;html=1;" edge="1" parent="1" source="H0H0fJoh627wvlZ6eN0J-5" target="H0H0fJoh627wvlZ6eN0J-13">
          <mxGeometry relative="1" as="geometry">
            <mxPoint x="275" y="310" as="sourcePoint" />
            <mxPoint x="305" y="330" as="targetPoint" />
          </mxGeometry>
        </mxCell>
        <mxCell id="H0H0fJoh627wvlZ6eN0J-19" style="rounded=1;orthogonalLoop=1;jettySize=auto;html=1;" edge="1" parent="1" source="H0H0fJoh627wvlZ6eN0J-10" target="H0H0fJoh627wvlZ6eN0J-13">
          <mxGeometry relative="1" as="geometry">
            <mxPoint x="285" y="320" as="sourcePoint" />
            <mxPoint x="315" y="340" as="targetPoint" />
          </mxGeometry>
        </mxCell>
        <mxCell id="H0H0fJoh627wvlZ6eN0J-20" value="&amp;lt;I&amp;gt;&lt;div&gt;_set_all_config_dict()&lt;/div&gt;" style="rounded=0;whiteSpace=wrap;html=1;" vertex="1" parent="1">
          <mxGeometry x="920" y="640" width="120" height="60" as="geometry" />
        </mxCell>
        <mxCell id="H0H0fJoh627wvlZ6eN0J-21" style="rounded=1;orthogonalLoop=1;jettySize=auto;html=1;" edge="1" parent="1" source="H0H0fJoh627wvlZ6eN0J-16" target="H0H0fJoh627wvlZ6eN0J-20">
          <mxGeometry relative="1" as="geometry">
            <mxPoint x="580" y="390" as="sourcePoint" />
            <mxPoint x="640" y="450" as="targetPoint" />
          </mxGeometry>
        </mxCell>
        <mxCell id="H0H0fJoh627wvlZ6eN0J-22" style="edgeStyle=orthogonalEdgeStyle;rounded=1;orthogonalLoop=1;jettySize=auto;html=1;curved=0;" edge="1" parent="1" source="H0H0fJoh627wvlZ6eN0J-1" target="H0H0fJoh627wvlZ6eN0J-20">
          <mxGeometry relative="1" as="geometry">
            <mxPoint x="230" y="110" as="sourcePoint" />
            <mxPoint x="670" y="450" as="targetPoint" />
            <Array as="points">
              <mxPoint x="220" y="160" />
              <mxPoint x="980" y="160" />
            </Array>
          </mxGeometry>
        </mxCell>
        <mxCell id="H0H0fJoh627wvlZ6eN0J-23" value="&amp;lt;DS&amp;gt;&lt;div&gt;dict_all_config&lt;/div&gt;" style="rounded=0;whiteSpace=wrap;html=1;" vertex="1" parent="1">
          <mxGeometry x="1080" y="720" width="120" height="60" as="geometry" />
        </mxCell>
        <mxCell id="H0H0fJoh627wvlZ6eN0J-24" style="rounded=1;orthogonalLoop=1;jettySize=auto;html=1;" edge="1" parent="1" target="H0H0fJoh627wvlZ6eN0J-23" source="H0H0fJoh627wvlZ6eN0J-20">
          <mxGeometry relative="1" as="geometry">
            <mxPoint x="1050" y="660" as="sourcePoint" />
            <mxPoint x="795" y="620" as="targetPoint" />
          </mxGeometry>
        </mxCell>
        <mxCell id="H0H0fJoh627wvlZ6eN0J-26" style="edgeStyle=orthogonalEdgeStyle;rounded=1;orthogonalLoop=1;jettySize=auto;html=1;curved=0;endArrow=block;endFill=0;" edge="1" parent="1" source="H0H0fJoh627wvlZ6eN0J-25" target="H0H0fJoh627wvlZ6eN0J-20">
          <mxGeometry relative="1" as="geometry" />
        </mxCell>
        <mxCell id="H0H0fJoh627wvlZ6eN0J-25" value="&lt;div&gt;_set_all_config_dict()&lt;/div&gt;" style="rounded=0;whiteSpace=wrap;html=1;" vertex="1" parent="1">
          <mxGeometry x="920" y="1080" width="120" height="60" as="geometry" />
        </mxCell>
        <mxCell id="H0H0fJoh627wvlZ6eN0J-28" value="setConfigParams2OuterDict()" style="rounded=0;whiteSpace=wrap;html=1;" vertex="1" parent="1">
          <mxGeometry x="1250" y="800" width="120" height="60" as="geometry" />
        </mxCell>
        <mxCell id="H0H0fJoh627wvlZ6eN0J-30" style="rounded=1;orthogonalLoop=1;jettySize=auto;html=1;" edge="1" parent="1" source="H0H0fJoh627wvlZ6eN0J-23" target="H0H0fJoh627wvlZ6eN0J-28">
          <mxGeometry relative="1" as="geometry">
            <mxPoint x="864" y="610" as="sourcePoint" />
            <mxPoint x="936" y="650" as="targetPoint" />
          </mxGeometry>
        </mxCell>
        <mxCell id="ZlI_Ul9aRBBHLrUR2pkL-1" style="edgeStyle=orthogonalEdgeStyle;rounded=0;orthogonalLoop=1;jettySize=auto;html=1;curved=1;endArrow=none;endFill=0;" edge="1" parent="1" source="ZlI_Ul9aRBBHLrUR2pkL-2" target="H0H0fJoh627wvlZ6eN0J-23">
          <mxGeometry relative="1" as="geometry">
            <mxPoint x="1140" y="720" as="targetPoint" />
          </mxGeometry>
        </mxCell>
        <mxCell id="ZlI_Ul9aRBBHLrUR2pkL-2" value="2次元配列dict_all_config[section][paramName] = value" style="shape=note;whiteSpace=wrap;html=1;backgroundOutline=1;darkOpacity=0.05;size=12;" vertex="1" parent="1">
          <mxGeometry x="1140" y="540" width="130" height="100" as="geometry" />
        </mxCell>
        <mxCell id="ZlI_Ul9aRBBHLrUR2pkL-3" value="setConfigParams2OuterDict()" style="text;html=1;align=center;verticalAlign=middle;whiteSpace=wrap;rounded=0;" vertex="1" parent="1">
          <mxGeometry x="1250" y="870" width="60" height="30" as="geometry" />
        </mxCell>
        <mxCell id="nrRrMzEDJv7GHUQUTg86-1" value="&amp;lt;I&amp;gt;&lt;div&gt;_set_all_config_dict()&lt;/div&gt;" style="text;html=1;align=center;verticalAlign=middle;whiteSpace=wrap;rounded=0;" vertex="1" parent="1">
          <mxGeometry x="860" y="710" width="60" height="30" as="geometry" />
        </mxCell>
      </root>
    </mxGraphModel>
  </diagram>
  <diagram name="20240818" id="WG9H9_CyKZvuXEHSOOkj">
    <mxGraphModel dx="1917" dy="1004" grid="1" gridSize="10" guides="1" tooltips="1" connect="1" arrows="1" fold="1" page="1" pageScale="1" pageWidth="827" pageHeight="1169" math="0" shadow="0">
      <root>
        <mxCell id="SZmem4GzENlsNNQeYUeN-0" />
        <mxCell id="SZmem4GzENlsNNQeYUeN-1" parent="SZmem4GzENlsNNQeYUeN-0" />
        <mxCell id="SZmem4GzENlsNNQeYUeN-2" value="" style="rounded=0;whiteSpace=wrap;html=1;fillColor=none;" vertex="1" parent="SZmem4GzENlsNNQeYUeN-1">
          <mxGeometry x="38" width="1422" height="1020" as="geometry" />
        </mxCell>
        <mxCell id="SZmem4GzENlsNNQeYUeN-3" style="edgeStyle=orthogonalEdgeStyle;rounded=1;orthogonalLoop=1;jettySize=auto;html=1;curved=0;" edge="1" parent="SZmem4GzENlsNNQeYUeN-1" source="SZmem4GzENlsNNQeYUeN-4" target="SZmem4GzENlsNNQeYUeN-8">
          <mxGeometry relative="1" as="geometry" />
        </mxCell>
        <mxCell id="SZmem4GzENlsNNQeYUeN-4" value="__init__()" style="rounded=0;whiteSpace=wrap;html=1;" vertex="1" parent="SZmem4GzENlsNNQeYUeN-1">
          <mxGeometry x="160" y="40" width="120" height="60" as="geometry" />
        </mxCell>
        <mxCell id="SZmem4GzENlsNNQeYUeN-5" style="rounded=0;orthogonalLoop=1;jettySize=auto;html=1;" edge="1" parent="SZmem4GzENlsNNQeYUeN-1" source="SZmem4GzENlsNNQeYUeN-6" target="SZmem4GzENlsNNQeYUeN-8">
          <mxGeometry relative="1" as="geometry" />
        </mxCell>
        <mxCell id="SZmem4GzENlsNNQeYUeN-6" value="&amp;lt;DS&amp;gt;&lt;div&gt;param_type_def_file&lt;/div&gt;" style="rounded=0;whiteSpace=wrap;html=1;" vertex="1" parent="SZmem4GzENlsNNQeYUeN-1">
          <mxGeometry x="80" y="160" width="120" height="60" as="geometry" />
        </mxCell>
        <mxCell id="SZmem4GzENlsNNQeYUeN-7" style="rounded=1;orthogonalLoop=1;jettySize=auto;html=1;" edge="1" parent="SZmem4GzENlsNNQeYUeN-1" source="SZmem4GzENlsNNQeYUeN-8" target="SZmem4GzENlsNNQeYUeN-9">
          <mxGeometry relative="1" as="geometry" />
        </mxCell>
        <mxCell id="SZmem4GzENlsNNQeYUeN-8" value="_set_dict_param_type()" style="rounded=0;whiteSpace=wrap;html=1;" vertex="1" parent="SZmem4GzENlsNNQeYUeN-1">
          <mxGeometry x="160" y="240" width="120" height="60" as="geometry" />
        </mxCell>
        <mxCell id="SZmem4GzENlsNNQeYUeN-9" value="&amp;lt;DS&amp;gt;&lt;div&gt;dict_param_type&lt;/div&gt;" style="rounded=0;whiteSpace=wrap;html=1;" vertex="1" parent="SZmem4GzENlsNNQeYUeN-1">
          <mxGeometry x="280" y="320" width="120" height="60" as="geometry" />
        </mxCell>
        <mxCell id="SZmem4GzENlsNNQeYUeN-10" style="rounded=1;orthogonalLoop=1;jettySize=auto;html=1;" edge="1" parent="SZmem4GzENlsNNQeYUeN-1" source="SZmem4GzENlsNNQeYUeN-11" target="SZmem4GzENlsNNQeYUeN-12">
          <mxGeometry relative="1" as="geometry" />
        </mxCell>
        <mxCell id="SZmem4GzENlsNNQeYUeN-11" value="_set_func_dict()" style="rounded=0;whiteSpace=wrap;html=1;" vertex="1" parent="SZmem4GzENlsNNQeYUeN-1">
          <mxGeometry x="360" y="240" width="120" height="60" as="geometry" />
        </mxCell>
        <mxCell id="SZmem4GzENlsNNQeYUeN-12" value="&amp;lt;DS&amp;gt;&lt;div&gt;dict_functions&lt;/div&gt;" style="rounded=0;whiteSpace=wrap;html=1;" vertex="1" parent="SZmem4GzENlsNNQeYUeN-1">
          <mxGeometry x="480" y="320" width="120" height="60" as="geometry" />
        </mxCell>
        <mxCell id="SZmem4GzENlsNNQeYUeN-13" style="edgeStyle=orthogonalEdgeStyle;rounded=1;orthogonalLoop=1;jettySize=auto;html=1;curved=0;" edge="1" parent="SZmem4GzENlsNNQeYUeN-1" source="SZmem4GzENlsNNQeYUeN-4" target="SZmem4GzENlsNNQeYUeN-11">
          <mxGeometry relative="1" as="geometry">
            <mxPoint x="230" y="110" as="sourcePoint" />
            <mxPoint x="230" y="250" as="targetPoint" />
            <Array as="points">
              <mxPoint x="220" y="160" />
              <mxPoint x="420" y="160" />
            </Array>
          </mxGeometry>
        </mxCell>
        <mxCell id="SZmem4GzENlsNNQeYUeN-14" style="rounded=1;orthogonalLoop=1;jettySize=auto;html=1;" edge="1" parent="SZmem4GzENlsNNQeYUeN-1" source="SZmem4GzENlsNNQeYUeN-15" target="SZmem4GzENlsNNQeYUeN-16">
          <mxGeometry relative="1" as="geometry" />
        </mxCell>
        <mxCell id="SZmem4GzENlsNNQeYUeN-15" value="_set_decode_funcitons()" style="rounded=0;whiteSpace=wrap;html=1;" vertex="1" parent="SZmem4GzENlsNNQeYUeN-1">
          <mxGeometry x="600" y="440" width="120" height="60" as="geometry" />
        </mxCell>
        <mxCell id="SZmem4GzENlsNNQeYUeN-16" value="&lt;div&gt;(decode_value_str_to_value())[]&lt;/div&gt;" style="rounded=0;whiteSpace=wrap;html=1;" vertex="1" parent="SZmem4GzENlsNNQeYUeN-1">
          <mxGeometry x="720" y="520" width="120" height="60" as="geometry" />
        </mxCell>
        <mxCell id="SZmem4GzENlsNNQeYUeN-17" value="&lt;div&gt;(decode_value_str_to_value())[]&lt;/div&gt;" style="rounded=0;whiteSpace=wrap;html=1;" vertex="1" parent="SZmem4GzENlsNNQeYUeN-1">
          <mxGeometry x="730" y="530" width="120" height="60" as="geometry" />
        </mxCell>
        <mxCell id="SZmem4GzENlsNNQeYUeN-18" value="&lt;div&gt;(decode_value_str_to_value())[]&lt;/div&gt;" style="rounded=0;whiteSpace=wrap;html=1;" vertex="1" parent="SZmem4GzENlsNNQeYUeN-1">
          <mxGeometry x="740" y="540" width="120" height="60" as="geometry" />
        </mxCell>
        <mxCell id="SZmem4GzENlsNNQeYUeN-19" style="edgeStyle=orthogonalEdgeStyle;rounded=1;orthogonalLoop=1;jettySize=auto;html=1;curved=0;" edge="1" parent="SZmem4GzENlsNNQeYUeN-1" source="SZmem4GzENlsNNQeYUeN-4" target="SZmem4GzENlsNNQeYUeN-15">
          <mxGeometry relative="1" as="geometry">
            <mxPoint x="230" y="40" as="sourcePoint" />
            <mxPoint x="560" y="200" as="targetPoint" />
            <Array as="points">
              <mxPoint x="220" y="160" />
              <mxPoint x="660" y="160" />
            </Array>
          </mxGeometry>
        </mxCell>
        <mxCell id="SZmem4GzENlsNNQeYUeN-20" style="rounded=1;orthogonalLoop=1;jettySize=auto;html=1;" edge="1" parent="SZmem4GzENlsNNQeYUeN-1" source="SZmem4GzENlsNNQeYUeN-9" target="SZmem4GzENlsNNQeYUeN-15">
          <mxGeometry relative="1" as="geometry">
            <mxPoint x="275" y="310" as="sourcePoint" />
            <mxPoint x="305" y="330" as="targetPoint" />
          </mxGeometry>
        </mxCell>
        <mxCell id="SZmem4GzENlsNNQeYUeN-21" style="rounded=1;orthogonalLoop=1;jettySize=auto;html=1;" edge="1" parent="SZmem4GzENlsNNQeYUeN-1" source="SZmem4GzENlsNNQeYUeN-12" target="SZmem4GzENlsNNQeYUeN-15">
          <mxGeometry relative="1" as="geometry">
            <mxPoint x="285" y="320" as="sourcePoint" />
            <mxPoint x="315" y="340" as="targetPoint" />
          </mxGeometry>
        </mxCell>
        <mxCell id="SZmem4GzENlsNNQeYUeN-22" value="&amp;lt;I&amp;gt;&lt;div&gt;read_config()&lt;/div&gt;" style="rounded=0;whiteSpace=wrap;html=1;" vertex="1" parent="SZmem4GzENlsNNQeYUeN-1">
          <mxGeometry x="920" y="640" width="120" height="60" as="geometry" />
        </mxCell>
        <mxCell id="SZmem4GzENlsNNQeYUeN-23" style="rounded=1;orthogonalLoop=1;jettySize=auto;html=1;" edge="1" parent="SZmem4GzENlsNNQeYUeN-1" source="SZmem4GzENlsNNQeYUeN-18" target="SZmem4GzENlsNNQeYUeN-22">
          <mxGeometry relative="1" as="geometry">
            <mxPoint x="580" y="390" as="sourcePoint" />
            <mxPoint x="640" y="450" as="targetPoint" />
          </mxGeometry>
        </mxCell>
        <mxCell id="SZmem4GzENlsNNQeYUeN-24" style="edgeStyle=orthogonalEdgeStyle;rounded=1;orthogonalLoop=1;jettySize=auto;html=1;curved=0;" edge="1" parent="SZmem4GzENlsNNQeYUeN-1" source="SZmem4GzENlsNNQeYUeN-4" target="SZmem4GzENlsNNQeYUeN-22">
          <mxGeometry relative="1" as="geometry">
            <mxPoint x="230" y="110" as="sourcePoint" />
            <mxPoint x="670" y="450" as="targetPoint" />
            <Array as="points">
              <mxPoint x="220" y="160" />
              <mxPoint x="980" y="160" />
            </Array>
          </mxGeometry>
        </mxCell>
        <mxCell id="SZmem4GzENlsNNQeYUeN-25" value="&amp;lt;DS&amp;gt;&lt;div&gt;dict_all_config&lt;/div&gt;" style="rounded=0;whiteSpace=wrap;html=1;" vertex="1" parent="SZmem4GzENlsNNQeYUeN-1">
          <mxGeometry x="1080" y="720" width="120" height="60" as="geometry" />
        </mxCell>
        <mxCell id="SZmem4GzENlsNNQeYUeN-26" style="rounded=1;orthogonalLoop=1;jettySize=auto;html=1;" edge="1" parent="SZmem4GzENlsNNQeYUeN-1" source="SZmem4GzENlsNNQeYUeN-22" target="SZmem4GzENlsNNQeYUeN-25">
          <mxGeometry relative="1" as="geometry">
            <mxPoint x="1050" y="660" as="sourcePoint" />
            <mxPoint x="795" y="620" as="targetPoint" />
          </mxGeometry>
        </mxCell>
        <mxCell id="SZmem4GzENlsNNQeYUeN-27" style="edgeStyle=orthogonalEdgeStyle;rounded=1;orthogonalLoop=1;jettySize=auto;html=1;curved=0;endArrow=block;endFill=0;" edge="1" parent="SZmem4GzENlsNNQeYUeN-1" source="SZmem4GzENlsNNQeYUeN-28" target="SZmem4GzENlsNNQeYUeN-22">
          <mxGeometry relative="1" as="geometry" />
        </mxCell>
        <mxCell id="SZmem4GzENlsNNQeYUeN-28" value="&lt;div&gt;read_config()&lt;/div&gt;" style="rounded=0;whiteSpace=wrap;html=1;" vertex="1" parent="SZmem4GzENlsNNQeYUeN-1">
          <mxGeometry x="920" y="1080" width="120" height="60" as="geometry" />
        </mxCell>
        <mxCell id="SZmem4GzENlsNNQeYUeN-29" value="update()" style="rounded=0;whiteSpace=wrap;html=1;" vertex="1" parent="SZmem4GzENlsNNQeYUeN-1">
          <mxGeometry x="920" y="40" width="120" height="60" as="geometry" />
        </mxCell>
        <mxCell id="SZmem4GzENlsNNQeYUeN-30" style="rounded=1;orthogonalLoop=1;jettySize=auto;html=1;" edge="1" parent="SZmem4GzENlsNNQeYUeN-1" source="SZmem4GzENlsNNQeYUeN-25" target="QJ3sGjiDHIzCPQLsoIyF-0">
          <mxGeometry relative="1" as="geometry">
            <mxPoint x="864" y="610" as="sourcePoint" />
            <mxPoint x="936" y="650" as="targetPoint" />
          </mxGeometry>
        </mxCell>
        <mxCell id="SZmem4GzENlsNNQeYUeN-31" style="edgeStyle=orthogonalEdgeStyle;rounded=1;orthogonalLoop=1;jettySize=auto;html=1;curved=0;" edge="1" parent="SZmem4GzENlsNNQeYUeN-1" source="SZmem4GzENlsNNQeYUeN-29" target="SZmem4GzENlsNNQeYUeN-22">
          <mxGeometry relative="1" as="geometry">
            <mxPoint x="230" y="110" as="sourcePoint" />
            <mxPoint x="990" y="650" as="targetPoint" />
            <Array as="points">
              <mxPoint x="980" y="210" />
              <mxPoint x="980" y="210" />
            </Array>
          </mxGeometry>
        </mxCell>
        <mxCell id="QJ3sGjiDHIzCPQLsoIyF-0" value="config_section_to_dict()" style="rounded=0;whiteSpace=wrap;html=1;" vertex="1" parent="SZmem4GzENlsNNQeYUeN-1">
          <mxGeometry x="1241" y="800" width="120" height="60" as="geometry" />
        </mxCell>
        <mxCell id="QJ3sGjiDHIzCPQLsoIyF-8" style="edgeStyle=orthogonalEdgeStyle;rounded=0;orthogonalLoop=1;jettySize=auto;html=1;curved=1;endArrow=none;endFill=0;" edge="1" parent="SZmem4GzENlsNNQeYUeN-1" source="QJ3sGjiDHIzCPQLsoIyF-7" target="SZmem4GzENlsNNQeYUeN-25">
          <mxGeometry relative="1" as="geometry" />
        </mxCell>
        <mxCell id="QJ3sGjiDHIzCPQLsoIyF-7" value="2次元配列dict_all_config[section][paramName] = value" style="shape=note;whiteSpace=wrap;html=1;backgroundOutline=1;darkOpacity=0.05;size=12;" vertex="1" parent="SZmem4GzENlsNNQeYUeN-1">
          <mxGeometry x="1140" y="540" width="130" height="100" as="geometry" />
        </mxCell>
        <mxCell id="QJ3sGjiDHIzCPQLsoIyF-9" value="&amp;lt;I&amp;gt;&lt;div&gt;write_config()&lt;/div&gt;" style="rounded=0;whiteSpace=wrap;html=1;" vertex="1" parent="SZmem4GzENlsNNQeYUeN-1">
          <mxGeometry x="1241" y="920" width="120" height="60" as="geometry" />
        </mxCell>
        <mxCell id="QJ3sGjiDHIzCPQLsoIyF-10" style="rounded=1;orthogonalLoop=1;jettySize=auto;html=1;" edge="1" parent="SZmem4GzENlsNNQeYUeN-1" source="SZmem4GzENlsNNQeYUeN-25" target="QJ3sGjiDHIzCPQLsoIyF-9">
          <mxGeometry relative="1" as="geometry">
            <mxPoint x="1210" y="790" as="sourcePoint" />
            <mxPoint x="1251" y="810" as="targetPoint" />
          </mxGeometry>
        </mxCell>
        <mxCell id="QJ3sGjiDHIzCPQLsoIyF-12" value="&amp;lt;I&amp;gt;&lt;div&gt;write_config()&lt;/div&gt;" style="rounded=0;whiteSpace=wrap;html=1;" vertex="1" parent="SZmem4GzENlsNNQeYUeN-1">
          <mxGeometry x="1241" y="1080" width="120" height="60" as="geometry" />
        </mxCell>
        <mxCell id="QJ3sGjiDHIzCPQLsoIyF-13" style="edgeStyle=orthogonalEdgeStyle;rounded=1;orthogonalLoop=1;jettySize=auto;html=1;curved=0;endArrow=block;endFill=0;" edge="1" parent="SZmem4GzENlsNNQeYUeN-1" source="QJ3sGjiDHIzCPQLsoIyF-12" target="QJ3sGjiDHIzCPQLsoIyF-9">
          <mxGeometry relative="1" as="geometry">
            <mxPoint x="990" y="1090" as="sourcePoint" />
            <mxPoint x="990" y="710" as="targetPoint" />
          </mxGeometry>
        </mxCell>
        <mxCell id="P5Ih-e97RSkbve5ruhi_-0" value="setConfigParams2OuterDict()" style="text;html=1;align=center;verticalAlign=middle;whiteSpace=wrap;rounded=0;" vertex="1" parent="SZmem4GzENlsNNQeYUeN-1">
          <mxGeometry x="1320" y="860" width="60" height="30" as="geometry" />
        </mxCell>
        <mxCell id="rqJ9GSwWLot1U5YrIFLu-0" value="&amp;lt;I&amp;gt;&lt;div&gt;_set_all_config_dict()&lt;/div&gt;" style="text;html=1;align=center;verticalAlign=middle;whiteSpace=wrap;rounded=0;" vertex="1" parent="SZmem4GzENlsNNQeYUeN-1">
          <mxGeometry x="890" y="700" width="60" height="30" as="geometry" />
        </mxCell>
      </root>
    </mxGraphModel>
  </diagram>
</mxfile>
